<?xml version="1.0" encoding="utf-8"?>
<!-- Generator: Adobe Illustrator 16.0.0, SVG Export Plug-In . SVG Version: 6.00 Build 0)  -->
<!DOCTYPE svg PUBLIC "-//W3C//DTD SVG 1.1//EN" "http://www.w3.org/Graphics/SVG/1.1/DTD/svg11.dtd">
<svg version="1.1" id="Calque_1" xmlns="http://www.w3.org/2000/svg" xmlns:xlink="http://www.w3.org/1999/xlink" x="0px" y="0px"
	 width="48px" height="48px" viewBox="0 0 48 48" enable-background="new 0 0 48 48" xml:space="preserve">
<path fill="#FFFFFF" d="M33,24c0-3.53-2.04-6.58-5-8.05v4.42l4.91,4.91C32.971,24.859,33,24.43,33,24z M38,24
	c0,1.88-0.41,3.65-1.08,5.28l3.03,3.03C41.25,29.82,42,27,42,24c0-8.56-5.99-15.72-14-17.54v4.13C33.779,12.31,38,17.66,38,24z
	 M8.55,6L6,8.55L15.45,18H6v12h8l10,10V26.55l8.51,8.511C31.17,36.09,29.66,36.92,28,37.42v4.13c2.75-0.63,5.26-1.89,7.37-3.62
	L39.45,42L42,39.45l-18-18L8.55,6z M24,8l-4.18,4.18L24,16.36V8z"/>
<path fill="none" d="M0,0h48v48H0V0z"/>
</svg>
