<?xml version="1.0" encoding="utf-8"?>
<!-- Generator: Adobe Illustrator 16.0.0, SVG Export Plug-In . SVG Version: 6.00 Build 0)  -->
<!DOCTYPE svg PUBLIC "-//W3C//DTD SVG 1.1//EN" "http://www.w3.org/Graphics/SVG/1.1/DTD/svg11.dtd">
<svg version="1.1" id="Calque_1" xmlns="http://www.w3.org/2000/svg" xmlns:xlink="http://www.w3.org/1999/xlink" x="0px" y="0px"
	 width="48px" height="48px" viewBox="0 0 48 48" enable-background="new 0 0 48 48" xml:space="preserve">
<path fill="none" d="M0,0h48v48H0V0z"/>
<path fill="#FFFFFF" d="M32.971,5.03C39.5,8.13,44.189,14.48,44.9,22h3C46.88,9.68,36.58,0,24,0c-0.45,0-0.88,0.04-1.33,0.07
	L30.3,7.7L32.971,5.03z M20.46,3.49c-1.17-1.17-3.07-1.17-4.24,0L3.49,16.22c-1.17,1.17-1.17,3.07,0,4.24L27.529,44.5
	c1.171,1.17,3.07,1.17,4.24,0L44.5,31.77c1.17-1.17,1.17-3.069,0-4.239L20.46,3.49z M29.66,42.38L5.61,18.34L18.34,5.61L42.38,29.65
	L29.66,42.38z M15.03,42.97C8.5,39.87,3.81,33.52,3.1,26h-3C1.12,38.32,11.42,48,24,48c0.45,0,0.88-0.04,1.33-0.07L17.7,40.3
	L15.03,42.97z"/>
</svg>
