<?xml version="1.0" encoding="utf-8"?>
<!-- Generator: Adobe Illustrator 16.0.0, SVG Export Plug-In . SVG Version: 6.00 Build 0)  -->
<!DOCTYPE svg PUBLIC "-//W3C//DTD SVG 1.1//EN" "http://www.w3.org/Graphics/SVG/1.1/DTD/svg11.dtd">
<svg version="1.1" id="Calque_1" xmlns="http://www.w3.org/2000/svg" xmlns:xlink="http://www.w3.org/1999/xlink" x="0px" y="0px"
	 width="48px" height="48px" viewBox="0 0 48 48" enable-background="new 0 0 48 48" xml:space="preserve">
<path fill="#FFFFFF" d="M6,18v12h8l10,10V8L14,18H6z M33,24c0-3.53-2.04-6.58-5-8.05v16.11C30.96,30.58,33,27.53,33,24z M28,6.46
	v4.13c5.779,1.72,10,7.07,10,13.41s-4.221,11.689-10,13.41v4.13c8.01-1.82,14-8.97,14-17.54C42,15.43,36.01,8.28,28,6.46z"/>
<path fill="none" d="M0,0h48v48H0V0z"/>
</svg>
